/* XPM */
static char *ce1cf1663cd64cdfde13dfae9b93e1b1Tc5kdIP4m1Ncc3Zm[] = {
/* columns rows colors chars-per-pixel */
"32 32 183 2 ",
"   c #000000",
".  c #090A0A",
"X  c #150302",
"o  c #180305",
"O  c #14110E",
"+  c #070E17",
"@  c #011319",
"#  c #141415",
"$  c #161919",
"%  c #1D1E1E",
"&  c #250607",
"*  c #2A0405",
"=  c #360405",
"-  c #3C090A",
";  c #221913",
":  c #29221B",
">  c #332A1F",
",  c #041521",
"<  c #0B1A23",
"1  c #262928",
"2  c #2C2C2C",
"3  c #362E23",
"4  c #3A2E23",
"5  c #3B3125",
"6  c #3C3329",
"7  c #2F3333",
"8  c gray21",
"9  c #4E0001",
"0  c #43090C",
"q  c #5D0E10",
"w  c #541E1C",
"e  c #620204",
"r  c #6C0706",
"t  c #670909",
"y  c #750707",
"u  c #610F11",
"i  c #6B1113",
"p  c #711113",
"a  c #791719",
"s  c #60201C",
"d  c #433A35",
"f  c #5D3A31",
"g  c #4A4301",
"h  c #524302",
"j  c #6C5902",
"k  c #6D6201",
"l  c #544634",
"z  c #584735",
"x  c #594937",
"c  c #5B4D3B",
"v  c #67553F",
"b  c #0E3657",
"n  c #24485C",
"m  c gray28",
"M  c gray30",
"N  c #515151",
"B  c #5B5B5B",
"V  c #665149",
"C  c #715D45",
"Z  c #755F48",
"A  c #79654C",
"S  c #7E6C56",
"D  c #676767",
"F  c #6B6A69",
"G  c #726D6D",
"H  c #747575",
"J  c #7D7D7D",
"K  c #900A0C",
"L  c #811415",
"P  c #8D1417",
"I  c #8E1518",
"U  c #96181A",
"Y  c #A91B1E",
"T  c #B41B1E",
"R  c #BC1C1F",
"E  c #BC1D20",
"W  c #C31D20",
"Q  c #C91E22",
"!  c #D01F23",
"~  c #E01F22",
"^  c #D42024",
"/  c #DA2125",
"(  c #E62326",
")  c #EA2327",
"_  c #ED2428",
"`  c #F12226",
"'  c #F32529",
"]  c #FD262B",
"[  c #FF282D",
"{  c #FF2D32",
"}  c #FF3136",
"|  c #877A00",
" . c #856F55",
".. c #867257",
"X. c #8B7255",
"o. c #8A755A",
"O. c #937A5B",
"+. c #BAAA04",
"@. c #BEB801",
"#. c #CFAA04",
"$. c #CEB200",
"%. c #CFBB02",
"&. c #FFE607",
"*. c #FFF603",
"=. c #FFFE01",
"-. c #FFFD16",
";. c #988366",
":. c #AB8D68",
">. c #B9966E",
",. c #BA966E",
"<. c #BA9770",
"1. c #B59875",
"2. c #BE9B73",
"3. c #BD9F79",
"4. c #BDB563",
"5. c #BEA17E",
"6. c #C19E75",
"7. c #C3A177",
"8. c #C8A377",
"9. c #C5A37B",
"0. c #C9A67D",
"q. c #CAA87F",
"w. c #015297",
"e. c #265E81",
"r. c #2A6C95",
"t. c #065AA0",
"y. c #005BBC",
"u. c #0F6DB8",
"i. c #667782",
"p. c #0063C1",
"a. c #056EC6",
"s. c #0774CC",
"d. c #0B77D1",
"f. c #758996",
"g. c #1B89D9",
"h. c #358DCB",
"j. c #3F93CE",
"k. c #3A93D1",
"l. c #4194CF",
"z. c #53A6D6",
"x. c #59A9D9",
"c. c #66B1DC",
"v. c #5BAEE0",
"b. c #58CFFF",
"n. c #5CD3FF",
"m. c #858585",
"M. c #878687",
"N. c #8E8E8E",
"B. c #918B88",
"V. c #909090",
"C. c gray62",
"Z. c #A7A19D",
"A. c #A4A4A4",
"S. c #AAA9A9",
"D. c #B1B1B1",
"F. c #BDBDBD",
"G. c #C5A680",
"H. c #C9A780",
"J. c #C5A985",
"K. c #CBAB83",
"L. c #CEAF89",
"P. c #D0AF87",
"I. c #CEB18B",
"U. c #D2B38D",
"Y. c #D4B791",
"T. c #D6B994",
"R. c #D9BB96",
"E. c #FFFF8A",
"W. c #BEBEC1",
"Q. c #A1C6E4",
"!. c #ACCEE9",
"~. c #B1D3EC",
"^. c #C3C3C3",
"/. c #CDCDCD",
"(. c #D6D6D6",
"). c #DBDCDC",
"_. c #C2E7FD",
"`. c #E3E3E3",
"'. c #EAEAEA",
"]. c gray95",
"[. c #FDFDFD",
"{. c #FEFEFE",
"}. c white",
/* pixels */
"7.9.6.8.8.8.q.q.K.U.P.I.U.U.Y.I.0.q.q.q.0.0.q.0.9.0.q.q.0.9.H.H.",
",.6.6.6.2.8.O.O O O O O O O O O O O O O O # O O c U.Y.U.P.P.K.H.",
"7.7.7.6.5.9. .                                  3 K.K.K.K.L.K.G.",
"R.R.Y.d : : w E W R R R E E Q W =   V./././././.m.: C q.0.P.Y.I.",
"T.T.1.; X X q ] ] ] ' ] ] ' ` ( s # ^.}.}.}.}.}.F.# l 2.1.I.Y.Y.",
"q.q.X ^ ] ) ( ) ) ) ) ) ' ! =   A.}.}.}.}.}.}.}.}.}.N.  l 9.H.K.",
"q.q.4 U T / _ ) ) ) ) ) ' ^ *   S.}.}.}.}.}.}.}.}.}.V.  d H.H.K.",
"0.8.5..   E { ] [ [ [ [ [ ` X   C.}.}.}.}.}.}.}.}.}.V.  x 8.0.H.",
"0.7.7.C z s a p p p p p a p G m.(.D.J J m.}.'.J J J N.m.d c 0.q.",
"7.0.7.5.6.5               @ ).}.}.M       }.(.      N.}.N   7.0.",
"q.H.0.0.G.3 g @.+.+.4.W.m.O ^.}.}.D     % }.).      N.}.m . q.9.",
"H.0.9.I.U.6 k =.=.*.E.}.W.. ^.}.}.D     % }.).      N.}.m   0.0.",
"5.7.7.H.5.5 j *.&.&.&.-.+.+ ^.}.}.B     . }.(.      m.}.m   9.0.",
",.2.7.7.,.> h %.#.#.$.%.| $ ^.}.}.m.8 8 M }.`.8 8 8 A.}.m   0.9.",
"5.2.2.2.:.>               $ ^.}.}.}.}.}.}.}.}.}.}.}.}.}.m   0.9.",
"K.0.7.9.1.> o 0 0 - 0 - * # ^.}.}.}.}.}.}.}.}.}.}.}.}.}.m . 9.J.",
"H.H.K.U.G.3 q ] _ ( ) ` K @ ).}.}.}.}.}.}.}.}.}.}.}.}.}.N   9.H.",
"K.J.L.I.5.5 u ] ' ` ' ] ~ a m H ].}.}.}.}.}.}.}.}.}.A.N V ..I.I.",
"Y.Y.Y.Y.J.3 q ] _ ) ) ) ] Q   % '.}.}.}.}.}.}.}.}.}.F   ;.I.T.T.",
"L.L.K.I.5.3 q ] ' [ - & ' R   7 }.}.}.}.`.% H }.}.}.J   ..L.I.I.",
"9.0.q.K.5.3 q ] ^ ^ = & ` W * 6 ^.'.}.}.`.2 J }.].(.D ; O.q.q.q.",
"0.7.7.0.q.6 i } 0   W [ ) ) { P   F }.}.}.}.}.}.F.  x 7.0.7.7.0.",
"9.0.0.:.A ; - Y i q ^ ' ) ( ' T q V A.A.A.A.A.A.G   z 0.8.0.0.7.",
"8.8.9.v         U { _ ( ) ) ( ' } 9                 z 0.8.8.8.7.",
"7.6.6.Z o L U I Q ' ) ) ) ) ) ) ' T I I P U U U q   x 9.6.9.H.9.",
"K.P.K.A * ' [ [ ' ) ) ) ) ) ) ) ) ] ] ] ] ] ] [ Q 0 f o.3.U.R.Y.",
"I.Y.Y.S & ^ ` ) ) ) ) ) ) ) ) ) ) ) ) _ ) ) ) ) ( ' a . ;.U.Y.I.",
"7.3.8.A X t y r r r r r e e e t p p r r r r e e e y =   o.9.9.7.",
",.,.,.C   @ , < < < < < 1 1 7 $   . < < < < 1 1 1 7 #   X.<.2.2.",
"2.6.6.Z , w.h.c.x.x.z.c.}.}.}.Z.  n v.x.z.c.}.}.}.}.B.   .<.6.<.",
"9.0.K.A @ t.d.l.h.h.h.j.Q.~._.f.  b k.k.h.l.Q.Q.!._.i.  X.9.9.9.",
"0.9.0.A @ u.d.a.a.a.a.a.p.g.b.r.  b s.s.a.a.p.y.d.n.e.  X.9.6.9."
};
