/* XPM */
static char *eba51043223f492db3293a003345ef4edQe5vh45A0mFAyXN[] = {
/* columns rows colors chars-per-pixel */
"32 32 173 2 ",
"   c #0F0F0C",
".  c #15130F",
"X  c #1B1913",
"o  c #1F1F1F",
"O  c #231D16",
"+  c #21201F",
"@  c #2C241B",
"#  c #032C2E",
"$  c #0C2B2C",
"%  c #172C2A",
"&  c #192E2D",
"*  c #1D312E",
"=  c #0A2F31",
"-  c #0C3133",
";  c #193C3D",
":  c #2F2F27",
">  c #3C3226",
",  c #3E3529",
"<  c #3F3A39",
"1  c #43372A",
"2  c #42382A",
"3  c #26433F",
"4  c #48483A",
"5  c #544737",
"6  c #63523E",
"7  c #004549",
"8  c #02565A",
"9  c #105458",
"0  c #2A4749",
"q  c #16666B",
"w  c #1B7075",
"e  c #524F4E",
"r  c #5C5148",
"t  c #4D4F50",
"y  c #655440",
"u  c #6A5742",
"i  c #6E5C45",
"p  c #61544B",
"a  c #6C5D49",
"s  c #645A56",
"d  c #79664E",
"f  c #7C6951",
"g  c #876F53",
"h  c #897256",
"j  c #8C755A",
"k  c #967C5D",
"l  c #9A7E5E",
"z  c #837573",
"x  c #A0825E",
"c  c #9C8161",
"v  c #A18463",
"b  c #AA8D6A",
"n  c #B4936C",
"m  c #BA966E",
"M  c #BD986E",
"N  c #A59074",
"B  c #B39572",
"V  c #BA9770",
"C  c #BE9B73",
"Z  c #BC9E79",
"A  c #C19E75",
"S  c #C3A076",
"D  c #C8A377",
"F  c #C5A37B",
"G  c #C9A67D",
"H  c #CAA87F",
"J  c #067E84",
"K  c #1D878C",
"L  c #1C898F",
"P  c #1D8D93",
"I  c #1B959C",
"U  c #28858A",
"Y  c #218F94",
"T  c #2C8E93",
"R  c #28979C",
"E  c #3D9396",
"W  c #179CA4",
"Q  c #299FA4",
"!  c #16A5AC",
"~  c #1CA3AA",
"^  c #12ABB4",
"/  c #12B4BC",
"(  c #2AA3A9",
")  c #24B3BB",
"_  c #32B7BE",
"`  c #7E9697",
"'  c #6DAEB1",
"]  c #13BBC4",
"[  c #27BDC5",
"{  c #12C1CB",
"}  c #1DC6CE",
"|  c #0DC6D0",
" . c #0BCAD4",
".. c #18CAD4",
"X. c #0ED3DE",
"o. c #17D3DD",
"O. c #24C5CD",
"+. c #2AC3CC",
"@. c #24D3DC",
"#. c #39D7DF",
"$. c #0DD9E4",
"%. c #0CDDE9",
"&. c #1CD7E1",
"*. c #17DAE5",
"=. c #0DE4ED",
"-. c #02E5F2",
";. c #0EE5F1",
":. c #02E8F3",
">. c #0BEAF6",
",. c #03EFFC",
"<. c #18EBF6",
"1. c #01F2FF",
"2. c #0AF4FF",
"3. c #00FCFF",
"4. c #10F1FC",
"5. c #1CF2FD",
"6. c #24EFFA",
"7. c #35ECF6",
"8. c #26F4FE",
"9. c #2CF5FF",
"0. c #3AF5FF",
"q. c #50CDD4",
"w. c #63DFE6",
"e. c #5DE6ED",
"r. c #46EEF7",
"t. c #58EBF3",
"y. c #53F5FB",
"u. c #5BF4FC",
"i. c #67E5EB",
"p. c #62ECF3",
"a. c #71EDF3",
"s. c #63F8FD",
"d. c #71F9FF",
"f. c #968F8E",
"g. c #859191",
"h. c #A59695",
"j. c #AB9897",
"k. c #8AAFB1",
"l. c #BDAEAE",
"z. c #C6A781",
"x. c #C8A780",
"c. c #C6A983",
"v. c #CBAB83",
"b. c #CDAE89",
"n. c #D0AF87",
"m. c #CEB18B",
"M. c #D1B18A",
"N. c #D2B38D",
"B. c #D2B48F",
"V. c #D5B58E",
"C. c #D5B690",
"Z. c #D4B691",
"A. c #D6B993",
"S. c #D8BA95",
"D. c #DABC96",
"F. c #DDBF99",
"G. c #C7B8B7",
"H. c #9AEFF2",
"J. c #86F5FB",
"K. c #93F0F5",
"L. c #94FDFE",
"P. c #9BFEFF",
"I. c #A6E7EB",
"U. c #A5F4F8",
"Y. c #ABFCFF",
"T. c #B4FFFF",
"R. c #C4C4C3",
"E. c #CAD1D1",
"W. c #D3E9EA",
"Q. c #C2F8FB",
"!. c #D1FFFF",
"~. c #E4FFFF",
"^. c #F4FFFF",
/* pixels */
"S F S D F F H H v.M.M.N.B.N.C.m.G v.G G G G G F D D G G v.F x.v.",
"M A A M C D F F F F v.V.V.C.C.m.v.C.N.B.S.S.D.S.B.C.V.m.v.M.v.z.",
"A F A A C F H F A C F b.v.v.v.v.v.v.v.n.N.M.b.B.n.n.v.v.v.b.v.z.",
"D.D.D.F.C.V.V.B.n.N.b.x.x.G v.b.n.H H H H D D D F D H v.z.b.V.n.",
"S.S.S.D.S.V.V.B.N.N.b.n.v.F x.x.v.G v.c.H v.v.c.v.F G F F M.V.V.",
"v.G G G G G F G v.F A F F F S F H G v.n.v.m.m.m.B.v.v.v.v.v.v.v.",
"H H v.F H H G G v.A M A n x l c c x c V C.C.S.C.S.n.v.v.n.v.v.H ",
"F D F H F H H v.v.G D G k 1 O O + O @ 6 v.v.H H G F S F F F G G ",
"F D G F H F c.v.v.v.F y 5 z h.h.h.h.f.p 6 Z S Z C S S F S F F c.",
"F F F S S S S S C b u e ` I.T.T.T.!.~.k.; a n S S S S S F F S F ",
"G v.F c.v.v.b.m.v.f < E.Y.0.2.2.5.y.J.w.( $ f F F c.H H F F v.F ",
"c.G F m.F.S.D.A.N r g.W.L.8.1.2.u.p.r.7.} q 4 g b F c.G G v.v.F ",
"S S A v.v.b.v.Z 5 s W.U.a.5.,.9.Q.J.5.1.>.) 3 > j F F F v.F F F ",
"m Z F A A A D Z , d ^.y.r.J.J.a.Q.H.t.8.3.<.7 O j H F F F D G F ",
"Z C A C C Z l f e g.P.s.d.Y.P.p.t.t.t.r.>.1.E p a h F F S F c.H ",
"v.G S F S z.2 + G.L.9.Q.T.0.,.,.1.1.>.o.O.>.L.R.t X v.m.c.c.c.F ",
"z.c.v.B.m.c.> O G.P.5.K.J.5.1.1.1.1.1.o.+.>.y.' 0 . v.B.v.F F c.",
"v.v.b.m.b.b., + l.Y.8.i.e.5.1.1.1.1.1.&.+.%.@.T ; X b.c.c.c.m.C.",
"A.C.A.Z.C.m.1 + l.!.e.q.#.4.3.3.3.3.3.*._ ~ W w $ X m.m.m.B.C.Z.",
"b.v.v.v.b.v.: o G.~.e.@... . . . . . .o...~ R w -   v.b.b.m.b.b.",
"G G x.v.v.v.5 @ j.H.1.-.| W K L P L P / :.1.} U ; @ G G G G H G ",
"F F F F G G b h 5 K -.^ ! ] ] { { { ] ! ^ :.J : d v A D F D D G ",
"G H F F G D F C 1 8 ..P I | =.%.%.%.$.! Y ..8 @ j G D F F F F F ",
"D D F A G G G n > 9 +.P I { $.$.$.$.X.! Y +.9 O g D G G D D D D ",
"A A A A A A A B y 0 U Q / &.;.;.;.;.=.} Q U 0 5 k C Z F A F z.F ",
"n.M.v.v.b.n.v.G A f % R [ ]  . .| | | O.R % d Z F b.b.b.b.m.A.A.",
"n.C.Z.Z.D.D.D.D.C.b.j * = # # # # # # = & h v.m.b.b.b.b.b.m.C.m.",
"A A G x.v.v.v.v.c.b.z.d r 6 6 6 y y y y i A G G F F G v.z.F F F ",
"m m C C A A A A F x.G b c l v v c v l l v D D G F D F G A V C C ",
"C A A F A F D F x.x.F x.z.A A G F F F F F F F A F A Z S C V C V ",
"F F v.G A G F F x.A C A A C V A A A A F F z.v.G G F F Z S F F F ",
"F F F F F F F G x.Z V V C C C C F F A A D G v.v.v.F S A A F A F "
};
