/* XPM */
static char *c6484e3f04944846d6be36a867eb1f4b6ghUpjR82tNq9aN4[] = {
/* columns rows colors chars-per-pixel */
"32 32 75 1 ",
"  c #1D0A05",
". c #240C05",
"X c #23120D",
"o c #29140E",
"O c #33160E",
"+ c #35180F",
"@ c #371911",
"# c #3C1A11",
"$ c #4C1606",
"% c #42170A",
"& c #431A0E",
"* c #4C1A0C",
"= c #571907",
"- c #5B1A07",
"; c #5E1C09",
": c #461E13",
"> c #481F13",
", c #631D09",
"< c #6B1F09",
"1 c #462014",
"2 c #4C2014",
"3 c #512215",
"4 c #5C2516",
"5 c #6C200A",
"6 c #73220A",
"7 c #7E260D",
"8 c #6F2D1A",
"9 c #7A331E",
"0 c #7D3520",
"q c #83270C",
"w c #85280D",
"e c #9A2F0F",
"r c #A52F0B",
"t c #B7330D",
"y c #A63110",
"u c #AA3310",
"i c #B33511",
"p c #B83915",
"a c #843822",
"s c #8B3A23",
"d c #C23A13",
"f c #C93B12",
"g c #D13F15",
"h c #DC3E10",
"j c #E13F10",
"k c #A94527",
"l c #A7462A",
"z c #AB472A",
"x c #AE482B",
"c c #B24A2B",
"v c #BC4D2D",
"b c #BF502F",
"n c #D64015",
"m c #DB4316",
"M c #DC4418",
"N c #E34517",
"B c #EC4312",
"V c #E5471A",
"C c #E94718",
"Z c #EB491B",
"A c #F04716",
"S c #FF4712",
"D c #F24817",
"F c #FC4A17",
"G c #F54A19",
"H c #FD4D19",
"J c #FF521A",
"K c #C24F2E",
"L c #C4502F",
"P c #C35432",
"I c #CA5733",
"U c #E35B35",
"Y c #F16237",
"T c #F66439",
"R c #FD6A3D",
/* pixels */
"UUUR98RUUUUUUUT4kTUUUUUUYv4UUUUU",
"hhhS6<ShhhhhhhA-rAhhhhhhjt-jjjhh",
"gnfG<-GgfmMfgnV$eNgggMggNy$gnggg",
"::13oo3:::&:::>X@>::#:::>:X>>>>>",
"cccxvKxcbs+vcccKvccI3:IcxvKccccc",
"AAZAAAAAHd,FDAAAABAJq6JAAAAZZAAA",
"ggfgmmggNy$mggfMmfgG<=Ggggmggggg",
":>:::&::2#X2>>:&::>3oo3:1&&::>:>",
"cccI21IccvKcccK+aLcxKKxcKs+ccccc",
"AAAJq6JAAAAZDDH<tHZAAAZAHf,DFAAB",
"gggD<-GgggmgggN$eNfnhmggNu$mnggg",
":>:3oo3>::%>>>>X@1:1&&::>#X>>1:>",
"cccxKKxcKs+vcccKvxcI3:IcxvKccccc",
"AZAAAZAAFp,FDAAZAAAJq6JAAAAZAAAA",
"gnfgmmfgNy$mgggmnggD<-Ggggmggggg",
"*:11&&1>>#X>>>:&&::3oo2:>:&:::::",
"cccI31IcccLxccL+0LcxKKxcbs+ccccc",
"AAZJq6JAAAAAAAH,iJAAAAAAHf,DDDAA",
"hngH<,HgnmNnnmC=eCnnMMggVi$mmgmg",
"::>3oX3:1:&>:11.@2:1&*>>2#X:*:>>",
"zxxlvvzxva+cxzzKczxP3:Pxzcvxxxxx",
"AAAAAAAAHd,HFDZADAAJw5JDADADAAAA",
"mgmgNMgmCy$NmggNmmmF5-HgnmNgnnnn",
"::>>&&>>>@X1>>>&&1:2oX3>>:&>>:>>",
"xxxP1>Pxzcvzzxv+0KxzvblxvaOxxzxz",
"AAAJq6JADAAGADH<iHADAAAAHf,DFAAA",
"ghgF<,HngmMngmC$eCggMMnnNt$mmnnn",
">>>3Xo3::::>>>>X+2>:&:1:2#X:>>>1",
"xxzzvvzzvaOcxzzvczxP3#Pxxcvxxxxx",
"AAAAAAAAHd,HDGAAAGAJw6JGADAAAAAA",
"VVVVVVVVGp;GCVVVVVVJ75JVVVVVVVVV",
"%&%%%%%&%O %%%%%%%&*. *%%%%%%%%%"
};
