/* XPM */
static char *dbaea8fb737c4a0dae202b9d777cbd81RRuGbgfOTzPDnLhj[] = {
/* columns rows colors chars-per-pixel */
"32 32 181 2 ",
"   c #082B09",
".  c #003C00",
"X  c #0C350C",
"o  c #054705",
"O  c #004D01",
"+  c #0B450C",
"@  c #015402",
"#  c #025D04",
"$  c #075408",
"%  c #0C5B08",
"&  c #0D5B11",
"*  c #105E12",
"=  c #1B5916",
"-  c #006501",
";  c #006B00",
":  c #086A06",
">  c #07640B",
",  c #0C6B0A",
"<  c #136B0E",
"1  c #007300",
"2  c #0A7706",
"3  c #007C01",
"4  c #0A750F",
"5  c #12720F",
"6  c #17790E",
"7  c #136617",
"8  c #1D6E17",
"9  c #1C6718",
"0  c #146E18",
"q  c #18691D",
"w  c #0D7713",
"e  c #0F7815",
"r  c #107711",
"t  c #197213",
"y  c #117A12",
"u  c #1F771C",
"i  c #1B7C1D",
"p  c #266419",
"a  c #256E1B",
"s  c #2A6F1F",
"d  c #24711C",
"f  c #2A731D",
"g  c #2C7D1A",
"h  c #1E6E23",
"j  c #1A7E21",
"k  c #246F29",
"l  c #2A6F28",
"z  c #3C6426",
"x  c #237425",
"c  c #277329",
"v  c #2B742C",
"b  c #257C2B",
"n  c #297928",
"m  c #34772A",
"M  c #296330",
"N  c #2D6833",
"B  c #2C7433",
"V  c #327635",
"C  c #337B3B",
"Z  c #486F2C",
"A  c #5A6F37",
"S  c #497B3B",
"D  c #5B7F41",
"F  c #787C4A",
"G  c #008104",
"H  c #018D07",
"J  c #038308",
"K  c #038C09",
"L  c #098D0B",
"P  c #009907",
"I  c #0D8613",
"U  c #0E8C15",
"Y  c #108516",
"T  c #108C16",
"R  c #128D19",
"E  c #0B9111",
"W  c #15941C",
"Q  c #2D871D",
"!  c #1E8124",
"~  c #1C9524",
"^  c #24852B",
"/  c #2A832D",
"(  c #2A8E2B",
")  c #23972C",
"_  c #23992C",
"`  c #2B8A33",
"'  c #2F8D38",
"]  c #318935",
"[  c #269B30",
"{  c #2B9E34",
"}  c #39933C",
"|  c #379A39",
" . c #3A9F3B",
".. c #1EA527",
"X. c #1FA528",
"o. c #21A52A",
"O. c #46852C",
"+. c #538535",
"@. c #59873B",
"#. c #379640",
"$. c #399745",
"%. c #3F9F4A",
"&. c #37A546",
"*. c #3CAA47",
"=. c #3EA24B",
"-. c #518447",
";. c #598347",
":. c #419549",
">. c #419F4C",
",. c #469951",
"<. c #79874D",
"1. c #6A9146",
"2. c #758D57",
"3. c #639D56",
"4. c #7E9656",
"5. c #42A043",
"6. c #40A04B",
"7. c #42AD4D",
"8. c #49AB4F",
"9. c #43A656",
"0. c #45AE51",
"q. c #4AB256",
"w. c #4CB359",
"e. c #4DB660",
"r. c #51BA69",
"t. c #8E8B59",
"y. c #889552",
"u. c #889A5B",
"i. c #8F9E64",
"p. c #989265",
"a. c #9F9966",
"s. c #989F70",
"d. c #A39564",
"f. c #A39A65",
"g. c #AC946A",
"h. c #A69A6E",
"j. c #AB9E6D",
"k. c #BA966E",
"l. c #B49A6D",
"z. c #BC986F",
"x. c #BA9770",
"c. c #B39F73",
"v. c #BE9C73",
"b. c #BF9E78",
"n. c #ADA16E",
"m. c #A9AF69",
"M. c #A6A171",
"N. c #AFA073",
"B. c #B3A874",
"V. c #B5AA7E",
"C. c #C19E75",
"Z. c #C3A177",
"A. c #C8A377",
"S. c #C5A37B",
"D. c #C9A67D",
"F. c #CAA87F",
"G. c #C7A680",
"H. c #C8A780",
"J. c #C6AE86",
"K. c #CBAB83",
"L. c #CCAC84",
"P. c #CDAD87",
"I. c #CEAE87",
"U. c #CEAF89",
"Y. c #D0AF87",
"T. c #C5B488",
"R. c #CDB18B",
"E. c #CEB08A",
"W. c #D1B18A",
"Q. c #D1B38D",
"!. c #D3B38D",
"~. c #D2B48F",
"^. c #D5B68E",
"/. c #C7B291",
"(. c #D3B690",
"). c #D3B791",
"_. c #D5B690",
"`. c #D7BA94",
"'. c #D8BA95",
"]. c #DABD97",
"[. c #D1BA98",
/* pixels */
"Z.S.C.Z.A.S.F.F.P.W.W.!.!.!.).E.F.F.F.F.F.F.A.A.A.K.F.D.D.C.K.D.",
"z.C.C.C.C.A.S.S.C.S.P.!.!.).).E.P.^.!.W.'.'.].).Q.Q._.W.P.W.P.G.",
"C.Z.C.C.v.S.F.S.C.v.D.P.P.I.I.K.K.I.I.I.W.W.W.W.P.P.K.P.P.P.G.H.",
"].].].]._.^.^.Q.W.Q.L.P.G.G.K.K.K.F.F.F.D.D.A.S.A.F.F.F.D.W.Q.).",
"`.'.`.`.`.^.Q.T.V.s.2.-.v 7 7 x v x v S 2.j.S.G.P.G.D.S.G.W._._.",
"K.F.F.v.;.B V B l s l n b b i r w t a f s l c v k m D a.G.H.K.K.",
"F.F.K.t.# # $ X 5 , : ; 1 1 1 1 1 ; ; ; - : 5 i / = & q M.P.H.K.",
"A.S.m.. O + X o ; - ; 1 1 1 1 1 ; ; - - ; - 1 1 3 + N C V c.A.F.",
"S.S.p O O X   . ; - - 1 1 1 ; 1 1 ; - ; - ; 1 1 3 . M C C 2.Z.F.",
"S.S.b 9 $ @ O O @ - - 1 1 1 1 1 ; ; - - ; ; ; ; , h B C C C h.S.",
"F.K.1 1 y u a 9 & @ O O @ - 1 1 1 ; # @ @ @ # > > > 0 x d u p.F.",
"F.H.1 1 1 ; - ; Y _ =.9.b $ O O O O o $ * x ] ` j w 1 1 ; ; f.S.",
"v.Z.2 1 1 ; - ; J H W 0.w.e.r.w.$.#.w.&.I G J 3 3 1 1 ; ; - j.S.",
"x.C.6 1 1 1 - ; J H ~ 0.w.q.q.w._ U *.{ G G J 3 1 1 1 1 - ; n.S.",
"b.v.g 1 1 1 - ; J K W 0.w.q.q.q._ U *.{ G G J 3 1 1 1 ; ; ; n.S.",
"P.G.O.1 1 1 - ; J H W 0.w.q.q.q.) T *.[ G G J 3 3 1 1 ; ; , N.G.",
"H.L.1.1 1 1 - ; 3 H W 7.w.q.w.q.) R *.[ G G G 3 1 1 1 ; ; f B.H.",
"P.H.u.1 1 1 - ; 3 H W 7.w.q.q.q.~ R *.) G G G 1 1 1 1 ; ; +.J.Q.",
"_.).V.t ; ; ; - 2 K W 7.w.q.w.q.~ R *.~ G G J 1 1 1 1 ; ; 4._._.",
"P.P.P.P.[.@ # # 3 H W 7.q.q.q.q.) R *.~ G G J 1 1 1 ; p <.J.P.U.",
"H.A.L.D.).@ ; e ' 4 Y &.w.q.q.q.~ W *.~ 3 3 1 : , o d.F.D.K.K.D.",
"S.S.H.A.f.- ; e ' ` :.}  .5.8.q.~ R | i 2 3 3 3 1 = g.A.D.v.A.A.",
"D.D.S.S.f.- ; e ' ^ ,.%...P E ( j 1 G 3 1 3 3 G 3 z x.S.D.D.D.C.",
"S.A.S.A.f.- ; e ` ^ ,.%.o.P K 1 ; 1 3 3 G 3 3 G 1 A A.A.C.A.D.C.",
"v.S.C.C.d.- - e ` ^ ,.%...P K 1 1 3 G 3 3 G 3 G ; F Z.S.C.D.G.S.",
"P.P.P.P.N.< ; e ` ! ,.%.X.P K 1 ; 1 3 3 3 3 3 G - p.E.P.J.!.[.).",
"P.^._.!.T.m - e ^ ^ ,.6.o.P L 1 ; 1 3 3 3 3 3 G # p.E.P.U.).).Q.",
"S.v.S.K.S.n.t w ^ ! ,.6.X.P K ; 1 3 G 3 3 3 3 G % d.F.F.G.v.S.S.",
"z.k.k.v.Z.C.l.+.! ! ,.6.o.P L 1 1 3 G 3 3 G 3 G Z v.S.F.C.x.x.v.",
"x.b.C.Z.Z.Z.Z.S.i.j ,.6.o.P K 1 ; 1 3 3 3 G 3 G <.v.v.Z.v.x.b.x.",
"S.S.P.F.Z.K.F.S.H./.` >.o.P K 1 1 1 G 3 G 2 Q @.B.S.S.b.C.S.S.S.",
"S.S.S.S.S.Z.S.A.F.b.g.3.o.P L 6 +.y.l.Z.S.A.K.K.K.F.b.C.Z.S.C.S."
};
