/* XPM */
static char *_0ea44a6d0384d76c1a8835a6a921aa6Nc4rnpdjZ4sKL1p7[] = {
/* columns rows colors chars-per-pixel */
"32 32 59 1 ",
"  c #B7926B",
". c #BA966E",
"X c #BD996E",
"o c #BA9770",
"O c #BE9B73",
"+ c #BF9F78",
"@ c #C19E75",
"# c #C09F79",
"$ c #C3A077",
"% c #C8A377",
"& c #C5A37B",
"* c #C9A67D",
"= c #CAA87F",
"- c #C6A780",
"; c #C9A780",
": c #C9A781",
"> c #C6A983",
", c #C8A880",
"< c #C8A881",
"1 c #CAA880",
"2 c #CAA883",
"3 c #CAAB82",
"4 c #CBAB82",
"5 c #CCAA81",
"6 c #CDAC83",
"7 c #CAAA84",
"8 c #CBAC85",
"9 c #CBAC86",
"0 c #CCAD84",
"q c #CCAC87",
"w c #CDAC87",
"e c #CDAD87",
"r c #CCAE89",
"t c #CEAE88",
"y c #CFAF89",
"u c #D0AE87",
"i c #D0AF87",
"p c #D0AF88",
"a c #CEB089",
"s c #CEB18B",
"d c #D0B088",
"f c #D1B189",
"g c #D2B28C",
"h c #D2B38D",
"j c #D3B38D",
"k c #D1B58E",
"l c #D5B58D",
"z c #D3B690",
"x c #D4B690",
"c c #D4B890",
"v c #D7B992",
"b c #D6B993",
"n c #D7BA94",
"m c #D8B993",
"M c #DABB95",
"N c #D8BB96",
"B c #DBBD96",
"V c #DCBE98",
"C c #DEC29C",
/* pixels */
"$&$$*&==qifhhhvs*>==****&*=**&*;",
".@@XO%&&&&eflzls8jhhMMvvhhxftft;",
"$$@@O*=&+X*e7e65<6eeifffe<5e7t7-",
"BMVBxllhhh75<<66i===***&***;*phh",
"bvbvvlhxjjei7-<<;<<<<<=<<=***hxx",
"6==*&**=<&$&&$$$==88ffshl<*5;;<<",
"=>=**<*<6@X@X@$**&&=jzvvMs;eie<5",
"*$****<<5=$*&@*>=&$$38<=*&$&&&*<",
"&$&*=*-8<=<<7>>=&><***$$O@$$$&&*",
"&*$$$$+$$@$$$*****=*&=+&@&+&&&&&",
"<<**e<tsfieere7->3>-><33=>=>&&>*",
"-**sVMMCCCMBBbvzsss&**&*$*=*==<*",
"+$@<etrre6r88>*****+++$$&=**>&&=",
".+&#@@$***&**$&$$Oo$++&&&<++&&=$",
"+OOOX+$&*=<tet8>+&+++>&&&&*&+&=&",
"7*$&$-tr><svs>rrsscjssjsss>s>--*",
">-7ss8sstsxxstsfscscsjzjsseje$*>",
"7>rst7<;8-$&&;<;>3*>***++*e<>>ss",
"vzvlzsfhb- O&@@$&===55*&&=ssssvb",
"t8ett7;*r&X&@@#&*=>3<6e68>eeiesr",
"=*=5=i%@@@&&@%*<&$=&==&*=***====",
"&&&**%$@O++@#&*&$$$$*$+$%&%%&$%*",
"**&&***%***-5*;58<=&=*$&%<&&*%&&",
"%%&@****<**55=<;<6=$==3=*%*%%%%$",
"@#@@@@&@&@@@%&&&;;-&*#@@##*&+*-*",
"eiqeie55;555;-2;77-t*#--;ttt>sbz",
"pxlxMMMMlzzfpht-&&*;;tifeettrszs",
"$@&;*;q7qt;t;;5;*-q;&***&&*<-&-&",
"X OO@+@@&*;5*#;=**&&&&@*&&&*+.oO",
"O++$$*&@*;*;#@#&*&&#*$%&&@O$O.OO",
"&*8=$=&&;#o@@@.@@#$&*<=**&$$$&&&",
"*$&&*$$**@.@.@@@$$@@$*<<t*@##+&$"
};
